<svg width="26" height="25" viewBox="0 0 26 25" fill="none" xmlns="http://www.w3.org/2000/svg">
    <path
        d="M2 9.46154L0.835828 10.4074L0.0672928 9.46154L0.835828 8.51565L2 9.46154ZM25.5 23C25.5 23.8284 24.8284 24.5 24 24.5C23.1716 24.5 22.5 23.8284 22.5 23L25.5 23ZM8.875 17.9231L7.71083 18.869L0.835828 10.4074L2 9.46154L3.16417 8.51565L10.0392 16.9772L8.875 17.9231ZM2 9.46154L0.835828 8.51565L7.71083 0.0541129L8.875 1L10.0392 1.94589L3.16417 10.4074L2 9.46154ZM2 9.46154L2 7.96154L18 7.96154L18 9.46154L18 10.9615L2 10.9615L2 9.46154ZM24 15.4615L25.5 15.4615L25.5 23L24 23L22.5 23L22.5 15.4615L24 15.4615ZM18 9.46154L18 7.96154C22.1421 7.96154 25.5 11.3194 25.5 15.4615L24 15.4615L22.5 15.4615C22.5 12.9763 20.4853 10.9615 18 10.9615L18 9.46154Z"
        fill="#33363F" />
</svg>
    